<svg width="36" height="36" viewBox="0 0 36 36" fill="none" xmlns="http://www.w3.org/2000/svg">
<g clip-path="url(#clip0_37_45)">
<path d="M35.1736 18.0003C35.1736 8.44392 27.4899 0.701172 18.0065 0.701172C8.52312 0.701172 0.839478 8.44392 0.839478 18.0003C0.839478 26.6345 7.11722 33.7913 15.3242 35.0901V23.001H10.9632V18.0003H15.3242V14.1889C15.3242 9.85366 17.8854 7.45898 21.8082 7.45898C23.6869 7.45898 25.6514 7.7966 25.6514 7.7966V12.0516H23.4861C21.3541 12.0516 20.6889 13.3853 20.6889 14.7532V18.0003H25.45L24.6885 23.001H20.6889V35.0901C28.8958 33.7913 35.1736 26.6345 35.1736 18.0003Z" fill="white"/>
</g>
<defs>
<clipPath id="clip0_37_45">
<rect width="35.4417" height="35.7143" fill="white" transform="translate(0.285645 0.142578)"/>
</clipPath>
</defs>
</svg>
