<svg width="36" height="40" viewBox="0 0 36 40" fill="none" xmlns="http://www.w3.org/2000/svg">
<g clip-path="url(#clip0_37_39)">
<path d="M17.7111 11.0156C12.7695 11.0156 8.78353 15.0234 8.78353 19.9922C8.78353 24.9609 12.7695 28.9688 17.7111 28.9688C22.6528 28.9688 26.6388 24.9609 26.6388 19.9922C26.6388 15.0234 22.6528 11.0156 17.7111 11.0156ZM17.7111 25.8281C14.5177 25.8281 11.907 23.2109 11.907 19.9922C11.907 16.7734 14.5099 14.1563 17.7111 14.1563C20.9123 14.1563 23.5153 16.7734 23.5153 19.9922C23.5153 23.2109 20.9046 25.8281 17.7111 25.8281ZM29.0863 10.6484C29.0863 11.8125 28.1539 12.7422 27.004 12.7422C25.8462 12.7422 24.9216 11.8047 24.9216 10.6484C24.9216 9.49219 25.854 8.55469 27.004 8.55469C28.1539 8.55469 29.0863 9.49219 29.0863 10.6484ZM34.9992 12.7734C34.8671 9.96875 34.23 7.48438 32.1865 5.4375C30.1508 3.39062 27.6799 2.75 24.8905 2.60938C22.0157 2.44531 13.3989 2.44531 10.524 2.60938C7.74236 2.74219 5.27153 3.38281 3.22805 5.42969C1.18457 7.47656 0.555203 9.96094 0.415345 12.7656C0.252177 15.6563 0.252177 24.3203 0.415345 27.2109C0.547433 30.0156 1.18457 32.5 3.22805 34.5469C5.27153 36.5938 7.73459 37.2344 10.524 37.375C13.3989 37.5391 22.0157 37.5391 24.8905 37.375C27.6799 37.2422 30.1508 36.6016 32.1865 34.5469C34.2222 32.5 34.8593 30.0156 34.9992 27.2109C35.1624 24.3203 35.1624 15.6641 34.9992 12.7734ZM31.2852 30.3125C30.6791 31.8438 29.5059 33.0234 27.9752 33.6406C25.6831 34.5547 20.2441 34.3438 17.7111 34.3438C15.1782 34.3438 9.73146 34.5469 7.44711 33.6406C5.92421 33.0313 4.75095 31.8516 4.13713 30.3125C3.22805 28.0078 3.43784 22.5391 3.43784 19.9922C3.43784 17.4453 3.23582 11.9688 4.13713 9.67188C4.74318 8.14063 5.91644 6.96094 7.44711 6.34375C9.73923 5.42969 15.1782 5.64062 17.7111 5.64062C20.2441 5.64062 25.6908 5.4375 27.9752 6.34375C29.4981 6.95312 30.6713 8.13281 31.2852 9.67188C32.1942 11.9766 31.9845 17.4453 31.9845 19.9922C31.9845 22.5391 32.1942 28.0156 31.2852 30.3125Z" fill="white"/>
</g>
<defs>
<clipPath id="clip0_37_39">
<rect width="34.8092" height="40" fill="white" transform="translate(0.298828)"/>
</clipPath>
</defs>
</svg>
