<svg width="36" height="36" viewBox="0 0 36 36" fill="none" xmlns="http://www.w3.org/2000/svg">
<g clip-path="url(#clip0_37_43)">
<path d="M32.0431 10.725C32.0658 11.0423 32.0658 11.3596 32.0658 11.6768C32.0658 21.3532 24.7009 32.5026 11.24 32.5026C7.09298 32.5026 3.24058 31.3015 0 29.2167C0.589216 29.2847 1.15569 29.3073 1.76758 29.3073C5.18938 29.3073 8.33936 28.1516 10.8548 26.1801C7.63686 26.1121 4.94015 24.0046 4.01102 21.1039C4.46429 21.1719 4.91748 21.2172 5.39342 21.2172C6.05057 21.2172 6.7078 21.1265 7.31961 20.968C3.96575 20.2881 1.45027 17.3421 1.45027 13.7843V13.6937C2.42467 14.2376 3.55783 14.5775 4.75879 14.6228C2.78725 13.3084 1.49561 11.0649 1.49561 8.52686C1.49561 7.1672 1.85812 5.92083 2.49268 4.83308C6.09584 9.27469 11.5119 12.1753 17.5851 12.4926C17.4718 11.9487 17.4038 11.3823 17.4038 10.8157C17.4038 6.78195 20.6671 3.49609 24.7234 3.49609C26.8309 3.49609 28.7344 4.37988 30.0715 5.80755C31.7257 5.4903 33.312 4.87842 34.7171 4.03997C34.1731 5.73961 33.0174 7.16727 31.4992 8.07366C32.9722 7.91511 34.3998 7.50711 35.7141 6.94064C34.7172 8.3909 33.4708 9.68255 32.0431 10.725Z" fill="white"/>
</g>
<defs>
<clipPath id="clip0_37_43">
<rect width="35.7143" height="35.7143" fill="white" transform="translate(0 0.142578)"/>
</clipPath>
</defs>
</svg>
