<svg width="41" height="36" viewBox="0 0 41 36" fill="none" xmlns="http://www.w3.org/2000/svg">
<path d="M38.672 8.79848C38.235 7.14879 36.9474 5.84954 35.3125 5.40862C32.3493 4.60742 20.4668 4.60742 20.4668 4.60742C20.4668 4.60742 8.58447 4.60742 5.62112 5.40862C3.98627 5.84961 2.69868 7.14879 2.26166 8.79848C1.46765 11.7886 1.46765 18.0273 1.46765 18.0273C1.46765 18.0273 1.46765 24.266 2.26166 27.2562C2.69868 28.9059 3.98627 30.151 5.62112 30.5919C8.58447 31.3931 20.4668 31.3931 20.4668 31.3931C20.4668 31.3931 32.3492 31.3931 35.3125 30.5919C36.9474 30.151 38.235 28.9059 38.672 27.2562C39.466 24.266 39.466 18.0273 39.466 18.0273C39.466 18.0273 39.466 11.7886 38.672 8.79848ZM16.5806 23.6916V12.3631L26.512 18.0275L16.5806 23.6916Z" fill="white"/>
</svg>
