<svg width="32" height="32" viewBox="0 0 32 32" fill="none" xmlns="http://www.w3.org/2000/svg">
<circle cx="16" cy="16" r="15" stroke="#6A6A6A" stroke-width="2"/>
<path d="M16 25.3333L14.6467 24.1054C13.0756 22.6727 11.7767 21.4369 10.75 20.3978C9.72335 19.3588 8.90669 18.426 8.30002 17.5995C7.69335 16.7729 7.26946 16.0133 7.02835 15.3206C6.78724 14.6279 6.66669 13.9195 6.66669 13.1953C6.66669 11.7154 7.15669 10.4796 8.13669 9.48774C9.11669 8.49591 10.3378 8 11.8 8C12.6089 8 13.3789 8.17318 14.11 8.51953C14.8411 8.86588 15.4711 9.35392 16 9.98365C16.5289 9.35392 17.1589 8.86588 17.89 8.51953C18.6211 8.17318 19.3911 8 20.2 8C21.6622 8 22.8834 8.49591 23.8634 9.48774C24.8434 10.4796 25.3334 11.7154 25.3334 13.1953C25.3334 13.9195 25.2128 14.6279 24.9717 15.3206C24.7306 16.0133 24.3067 16.7729 23.7 17.5995C23.0934 18.426 22.2767 19.3588 21.25 20.3978C20.2234 21.4369 18.9245 22.6727 17.3534 24.1054L16 25.3333ZM16 22.7829C17.4934 21.429 18.7222 20.2679 19.6867 19.2997C20.6511 18.3315 21.4134 17.4893 21.9734 16.7729C22.5334 16.0566 22.9222 15.419 23.14 14.8601C23.3578 14.3012 23.4667 13.7463 23.4667 13.1953C23.4667 12.2507 23.1556 11.4635 22.5334 10.8338C21.9111 10.2041 21.1334 9.88919 20.2 9.88919C19.4689 9.88919 18.7922 10.0978 18.17 10.515C17.5478 10.9322 17.12 11.4635 16.8867 12.109H15.1134C14.88 11.4635 14.4522 10.9322 13.83 10.515C13.2078 10.0978 12.5311 9.88919 11.8 9.88919C10.8667 9.88919 10.0889 10.2041 9.46669 10.8338C8.84447 11.4635 8.53335 12.2507 8.53335 13.1953C8.53335 13.7463 8.64224 14.3012 8.86002 14.8601C9.0778 15.419 9.46669 16.0566 10.0267 16.7729C10.5867 17.4893 11.3489 18.3315 12.3134 19.2997C13.2778 20.2679 14.5067 21.429 16 22.7829Z" fill="#6A6A6A"/>
</svg>
