<svg width="32" height="32" viewBox="0 0 32 32" fill="none" xmlns="http://www.w3.org/2000/svg">
<circle cx="16" cy="16" r="15" stroke="#6A6A6A" stroke-width="2"/>
<path d="M11 24.0003C10.5416 24.0003 10.1493 23.8306 9.8229 23.4912C9.49651 23.1517 9.33331 22.7437 9.33331 22.267V11.867C9.33331 11.3903 9.49651 10.9823 9.8229 10.6428C10.1493 10.3034 10.5416 10.1337 11 10.1337H12.6666C12.6666 9.18033 12.993 8.36421 13.6458 7.68533C14.2986 7.00644 15.0833 6.66699 16 6.66699C16.9166 6.66699 17.7014 7.00644 18.3541 7.68533C19.0069 8.36421 19.3333 9.18033 19.3333 10.1337H21C21.4583 10.1337 21.8507 10.3034 22.1771 10.6428C22.5035 10.9823 22.6666 11.3903 22.6666 11.867V22.267C22.6666 22.7437 22.5035 23.1517 22.1771 23.4912C21.8507 23.8306 21.4583 24.0003 21 24.0003H11ZM11 22.267H21V11.867H19.3333V13.6003C19.3333 13.8459 19.2535 14.0517 19.0937 14.2178C18.934 14.3839 18.7361 14.467 18.5 14.467C18.2639 14.467 18.066 14.3839 17.9062 14.2178C17.7465 14.0517 17.6666 13.8459 17.6666 13.6003V11.867H14.3333V13.6003C14.3333 13.8459 14.2535 14.0517 14.0937 14.2178C13.934 14.3839 13.7361 14.467 13.5 14.467C13.2639 14.467 13.066 14.3839 12.9062 14.2178C12.7465 14.0517 12.6666 13.8459 12.6666 13.6003V11.867H11V22.267ZM14.3333 10.1337H17.6666C17.6666 9.65699 17.5035 9.24894 17.1771 8.90949C16.8507 8.57005 16.4583 8.40033 16 8.40033C15.5416 8.40033 15.1493 8.57005 14.8229 8.90949C14.4965 9.24894 14.3333 9.65699 14.3333 10.1337Z" fill="#6A6A6A"/>
</svg>
